<mxfile host="Electron" agent="Mozilla/5.0 (Macintosh; Intel Mac OS X 10_15_7) AppleWebKit/537.36 (KHTML, like Gecko) draw.io/26.0.9 Chrome/128.0.6613.186 Electron/32.2.5 Safari/537.36" version="26.0.9">
  <diagram name="Page-1" id="JPd0dMD4PLcVTyGXg_rG">
    <mxGraphModel dx="1114" dy="849" grid="1" gridSize="10" guides="1" tooltips="1" connect="1" arrows="1" fold="1" page="1" pageScale="1" pageWidth="850" pageHeight="1100" math="0" shadow="0">
      <root>
        <mxCell id="0" />
        <mxCell id="1" parent="0" />
        <mxCell id="uLZbaDFwx-mzluyhf61x-1" value="&lt;font style=&quot;font-size: 33px;&quot;&gt;ratings_fact&lt;/font&gt;" style="shape=process;whiteSpace=wrap;html=1;backgroundOutline=1;fillColor=#d5e8d4;strokeColor=#82b366;" parent="1" vertex="1">
          <mxGeometry x="300" y="280" width="230" height="80" as="geometry" />
        </mxCell>
        <mxCell id="uLZbaDFwx-mzluyhf61x-2" value="&lt;font style=&quot;font-size: 29px;&quot;&gt;movies_dim&lt;/font&gt;" style="shape=process;whiteSpace=wrap;html=1;backgroundOutline=1;fillColor=#e1d5e7;strokeColor=#9673a6;" parent="1" vertex="1">
          <mxGeometry x="520" y="120" width="220" height="80" as="geometry" />
        </mxCell>
        <mxCell id="uLZbaDFwx-mzluyhf61x-3" value="&lt;font style=&quot;font-size: 30px;&quot;&gt;users_dim&lt;/font&gt;" style="shape=process;whiteSpace=wrap;html=1;backgroundOutline=1;fillColor=#dae8fc;strokeColor=#6c8ebf;" parent="1" vertex="1">
          <mxGeometry x="100" y="115" width="210" height="90" as="geometry" />
        </mxCell>
        <mxCell id="uLZbaDFwx-mzluyhf61x-4" value="&lt;font style=&quot;font-size: 31px;&quot;&gt;dates_dim&lt;/font&gt;" style="shape=process;whiteSpace=wrap;html=1;backgroundOutline=1;fillColor=#ffe6cc;strokeColor=#d79b00;" parent="1" vertex="1">
          <mxGeometry x="310" y="460" width="215" height="90" as="geometry" />
        </mxCell>
        <mxCell id="uLZbaDFwx-mzluyhf61x-8" value="" style="endArrow=none;html=1;rounded=0;entryX=0.5;entryY=1;entryDx=0;entryDy=0;exitX=0.5;exitY=0;exitDx=0;exitDy=0;" parent="1" source="uLZbaDFwx-mzluyhf61x-4" target="uLZbaDFwx-mzluyhf61x-1" edge="1">
          <mxGeometry width="50" height="50" relative="1" as="geometry">
            <mxPoint x="400" y="450" as="sourcePoint" />
            <mxPoint x="450" y="400" as="targetPoint" />
          </mxGeometry>
        </mxCell>
        <mxCell id="uLZbaDFwx-mzluyhf61x-9" value="" style="endArrow=none;html=1;rounded=0;entryX=0.5;entryY=1;entryDx=0;entryDy=0;exitX=1;exitY=0;exitDx=0;exitDy=0;" parent="1" source="uLZbaDFwx-mzluyhf61x-1" target="uLZbaDFwx-mzluyhf61x-2" edge="1">
          <mxGeometry width="50" height="50" relative="1" as="geometry">
            <mxPoint x="400" y="450" as="sourcePoint" />
            <mxPoint x="450" y="400" as="targetPoint" />
          </mxGeometry>
        </mxCell>
        <mxCell id="uLZbaDFwx-mzluyhf61x-10" value="" style="endArrow=none;html=1;rounded=0;exitX=0.5;exitY=1;exitDx=0;exitDy=0;entryX=0;entryY=0;entryDx=0;entryDy=0;" parent="1" source="uLZbaDFwx-mzluyhf61x-3" target="uLZbaDFwx-mzluyhf61x-1" edge="1">
          <mxGeometry width="50" height="50" relative="1" as="geometry">
            <mxPoint x="400" y="450" as="sourcePoint" />
            <mxPoint x="450" y="400" as="targetPoint" />
          </mxGeometry>
        </mxCell>
      </root>
    </mxGraphModel>
  </diagram>
</mxfile>
